# xmcd
#
# Track frame offsets: 
#        150
#        9376
#        21751
#        34188
#        46801
#        58651
#        71013
#        86101
#        104627
#        118727
#        128327
#        147527
#        161777
#        178053
#        195079
#        209629
#        223355
#
# Disc length: 3168 seconds
#
# Revision: 2
# Processed by: cddbd v1.5.2PL0 Copyright (c) Steve Scherf et al.
# Submitted via: ExactAudioCopyFreeDBPlugin 1.0
#
DISCID=fe0c5e11
DTITLE=Tom Jones - 1989 - It's Not Unusual
DYEAR=1989
DGENRE=Pop
TTITLE0=It's Not Unusual
TTITLE1=With These Hands
TTITLE2=Kansas City
TTITLE3=It's Magic
TTITLE4=Promise Her Anything
TTITLE5=Memphis Tennessee
TTITLE6=(Sittin' On) The Dock of The Bay
TTITLE7=If You go Away
TTITLE8=Green Green Grass of Home
TTITLE9=What's New Pussycat
TTITLE10=I'll Never Fall in Love Again
TTITLE11=I'm Coming Home
TTITLE12=Detroit City
TTITLE13=My Prayer
TTITLE14=I Can't Stop Loving You
TTITLE15=Let it be me
TTITLE16=Love me Tonight
EXTD=
EXTT0=
EXTT1=
EXTT2=
EXTT3=
EXTT4=
EXTT5=
EXTT6=
EXTT7=
EXTT8=
EXTT9=
EXTT10=
EXTT11=
EXTT12=
EXTT13=
EXTT14=
EXTT15=
EXTT16=
PLAYORDER=
